<?xml version="1.0" encoding="UTF-8"?>
<svg width="28px" height="28px" viewBox="0 0 28 28" version="1.1" xmlns="http://www.w3.org/2000/svg" xmlns:xlink="http://www.w3.org/1999/xlink">
    <!-- Generator: Sketch 63 (92445) - https://sketch.com -->
    <title>mock工具-圆形</title>
    <desc>Created with Sketch.</desc>
    <defs>
        <linearGradient x1="85.4642447%" y1="0%" x2="13.1391734%" y2="100%" id="linearGradient-1">
            <stop stop-color="#4557E4" offset="0%"></stop>
            <stop stop-color="#9087F7" offset="50.876546%"></stop>
            <stop stop-color="#8CAEF7" offset="100%"></stop>
        </linearGradient>
        <circle id="path-2" cx="14" cy="14" r="14"></circle>
    </defs>
    <g id="页面1" stroke="none" stroke-width="1" fill="none" fill-rule="evenodd">
        <g id="画板" transform="translate(-477.000000, -81.000000)">
            <g id="mock工具-圆形" transform="translate(477.000000, 81.000000)">
                <mask id="mask-3" fill="white">
                    <use xlink:href="#path-2"></use>
                </mask>
                <use id="椭圆形" fill="url(#linearGradient-1)" xlink:href="#path-2"></use>
                <g id="服务器" mask="url(#mask-3)" fill="#FFFFFF" fill-rule="nonzero">
                    <g transform="translate(6.000000, 5.000000)" id="形状">
                        <path d="M0,11.7 L16.8,11.7 L16.8,6.60000001 L0,6.60000001 L0,11.7 Z M13.32,8.40000001 C13.74,8.40000001 14.07,8.73 14.1,9.12000001 C14.1,9.54 13.77,9.87000001 13.38,9.90000001 C12.99,9.92999999 12.63,9.57000001 12.6,9.18 C12.6,8.76000001 12.93,8.40000001 13.32,8.40000001 Z M10.92,8.40000001 C11.22,8.40000001 11.49,8.58000001 11.61,8.85000001 C11.73,9.12000001 11.67,9.45 11.46,9.66000001 C11.25,9.87000001 10.92,9.93000001 10.65,9.84000001 C10.38,9.72 10.17,9.45 10.17,9.14999999 C10.2,8.73 10.53,8.40000001 10.92,8.40000001 L10.92,8.40000001 Z M2.39999999,8.40000001 L6.60000001,8.40000001 L6.60000001,9.90000001 L2.39999999,9.90000001 L2.39999999,8.40000001 L2.39999999,8.40000001 Z M15.54,0 L1.29000001,0 C0.600000012,0 0.0300000059,0.570000006 0.0300000059,1.26 L0.0300000059,5.09999999 L16.83,5.09999999 L16.83,1.26 C16.8,0.570000006 16.23,0 15.54,0 Z M6.60000001,3.3 L2.39999999,3.3 L2.39999999,1.8 L6.60000001,1.8 L6.60000001,3.3 Z M10.98,3.3 C10.71,3.3 10.44,3.17999999 10.29,2.93999999 C10.14,2.7 10.14,2.43 10.26,2.19000001 C10.38,1.95000001 10.65,1.8 10.92,1.8 C11.31,1.8 11.64,2.12999999 11.67,2.52 C11.7,2.93999999 11.4,3.27000001 10.98,3.3 L10.98,3.3 Z M13.38,3.3 C12.96,3.3 12.63,2.97 12.6,2.57999999 C12.6,2.16 12.93,1.82999999 13.32,1.8 C13.74,1.8 14.07,2.12999999 14.1,2.52 C14.1,2.93999999 13.77,3.3 13.38,3.3 Z M1.26,12.9 L0,12.9 L0,17.1 C0,17.61 0.390000006,18 0.9,18 L15.9,18 C16.38,18 16.8,17.61 16.8,17.1 L16.8,12.9 L1.26,12.9 Z M6.60000001,16.2 L2.39999999,16.2 L2.39999999,14.7 L6.60000001,14.7 L6.60000001,16.2 Z M10.95,16.2 C10.53,16.2 10.2,15.87 10.2,15.45 C10.2,15.03 10.53,14.7 10.95,14.7 C11.37,14.7 11.7,15.03 11.7,15.45 C11.7,15.87 11.37,16.2 10.95,16.2 Z M13.35,16.2 C12.93,16.2 12.6,15.87 12.6,15.45 C12.6,15.03 12.93,14.7 13.35,14.7 C13.77,14.7 14.1,15.03 14.1,15.45 C14.1,15.87 13.77,16.2 13.35,16.2 Z"></path>
                    </g>
                </g>
            </g>
        </g>
    </g>
</svg>