<?xml version="1.0" encoding="UTF-8"?>
<svg width="18px" height="18px" viewBox="0 0 18 18" version="1.1" xmlns="http://www.w3.org/2000/svg" xmlns:xlink="http://www.w3.org/1999/xlink">
    <!-- Generator: Sketch 55 (78076) - https://sketchapp.com -->
    <title>编组 5</title>
    <desc>Created with Sketch.</desc>
    <g id="页面1" stroke="none" stroke-width="1" fill="none" fill-rule="evenodd">
        <g id="API-postwoman" transform="translate(-379.000000, -120.000000)" fill="#FFFFFF" fill-rule="nonzero">
            <g id="编组-5" transform="translate(379.000000, 120.000000)">
                <path d="M11.7248379,17.5574032 C11.579199,15.45924 12.2206485,13.5100353 13.6624199,11.7545803 L13.725849,11.6780929 C13.8012902,11.5879889 13.8749699,11.4984046 13.9468947,11.4093378 C13.6539985,10.9031799 13.2930447,10.4051027 12.8642968,9.91401577 L12.81739,9.98709443 C12.7450678,10.0998775 12.6712974,10.2129687 12.5960812,10.3263673 C11.1726071,12.4724473 10.9780161,14.8682589 11.5876458,17.5574032 L11.7248379,17.5574032 Z M6.40658127,17.5574032 C7.00381753,14.9090324 6.82111388,12.545007 5.44485788,10.4237189 L5.38810251,10.3371492 C5.29435148,10.195626 5.20284663,10.054581 5.1135926,9.91401577 L5.05653384,9.97952654 C4.6551004,10.4459301 4.31453697,10.918653 4.03499608,11.3985945 C4.08683478,11.4631 4.13958775,11.5278547 4.19326043,11.5928742 L4.27445993,11.6906039 C5.75617811,13.4625733 6.41907302,15.4336448 6.27692564,17.5574032 L6.40658127,17.5574032 Z M13.7556037,17.5574032 L10.0336749,17.5574032 C8.64019293,14.4267487 8.97986313,11.6011198 11.0889429,9.14651195 L11.153396,9.07224353 C11.2878471,8.91884388 11.4169122,8.76676897 11.5406111,8.61601387 L11.5092762,8.59408226 C10.5335472,7.90705515 9.69106338,7.22678914 8.98425461,6.55389587 C8.2724223,7.23174446 7.42282801,7.91699791 6.43806692,8.60910635 C6.53827442,8.73151663 6.64212695,8.85480149 6.74955108,8.97896044 L6.83078771,9.07224353 C8.99728174,11.5440675 9.35806637,14.395126 7.9505088,17.5574032 L4.27368002,17.5574032 C4.81040097,16.0226492 4.46004789,14.6663615 3.24455412,13.4334399 L3.22137924,13.5102671 C2.85727745,14.7791555 3.17847735,16.11972 4.1906897,17.5574032 L3.03251899,17.5574032 C1.19089281,15.2100962 0.813399296,12.9694742 1.91383191,10.898275 C0.421631958,9.26573247 -0.214617729,7.72280619 0.063750141,6.28333686 C0.0719306288,6.230177 0.11506065,6.18868343 0.168727504,6.18338722 L0.180379925,6.1828153 L1.73145008,6.18274496 L1.7435153,6.18332029 C1.8106542,6.18942661 1.86326502,6.24630763 1.86326502,6.31557512 C1.86326502,6.32462273 1.86236741,6.33345901 1.86065708,6.34199842 L1.85749263,6.35457418 C1.61695292,7.27624541 1.94796941,8.3247402 2.89571178,9.51068385 C3.25131217,9.11136786 3.66667509,8.719517 4.14171828,8.3355596 C2.77338189,6.34421274 2.24850295,4.48931505 2.60054081,2.77917561 L2.60928349,2.73760114 C2.62073446,2.66325118 2.68160988,2.60537675 2.75699196,2.59917574 L2.77043816,2.59862501 L4.25210589,2.59857104 L4.25617253,2.59845942 C4.33861593,2.59845942 4.40619284,2.66262101 4.41244179,2.74411004 L4.41291336,2.7564575 C4.41291336,2.7633026 4.41248153,2.77004603 4.41164383,2.77666161 L4.4099206,2.78734032 C4.40857661,2.79417738 4.406795,2.80085573 4.40460642,2.80734447 L4.40692009,2.79784266 L4.39862989,2.82971596 C4.05648434,4.15880701 4.41448409,5.66001457 5.50467441,7.34128798 C6.45016419,6.66394606 7.2399332,6.00820797 7.87765221,5.37327277 C6.37434477,3.54596798 5.90949221,1.77723419 6.53362203,0.0797830831 C6.54878256,0.0369180411 6.58738037,0.00527677473 6.63384326,0.000662526894 L6.64561383,-1.42108547e-14 L8.3271223,-1.42108547e-14 C8.37314168,-1.42108547e-14 8.41044775,0.037686484 8.41044775,0.0840749857 C8.41044775,0.0973288433 8.40740235,0.109865706 8.40197845,0.121013337 L8.40007295,0.124333108 C7.79442971,1.33982082 7.97430305,2.65614736 8.98429979,4.08454159 C9.9944643,2.65604696 10.1742958,1.33963577 9.56849967,0.124076797 C9.56210609,0.112234676 9.55845635,0.0985844719 9.55845635,0.0840749857 C9.55845635,0.0409999484 9.59062332,0.00549817267 9.63206428,0.00064626102 L9.63881128,-1.42108547e-14 L11.3231213,-1.42108547e-14 L11.3345435,0.000547285416 C11.3791121,0.00484023118 11.4164833,0.0339960291 11.4328501,0.0740968196 L11.4367826,0.0852943055 C12.0582133,1.78102232 11.5927632,3.54792359 10.0912058,5.37326184 C10.7311484,6.01057883 11.5244363,6.66884342 12.4743658,7.348936 C13.5730923,5.65762509 13.9311504,4.14847211 13.5813014,2.81334396 C13.5762302,2.79748202 13.5735025,2.78057533 13.5735025,2.76302645 C13.5735025,2.67655368 13.6397332,2.60567399 13.7238501,2.59911963 L13.7365957,2.59862501 L15.214067,2.59857104 L15.2181552,2.59845942 C15.2948932,2.59845942 15.3587512,2.65404795 15.3722614,2.72745668 C15.7466791,4.45423219 15.2231767,6.32915985 13.8366755,8.34372001 C14.3152677,8.73102158 14.7328637,9.12644239 15.0898587,9.52937144 C16.0579822,8.32445004 16.3909531,7.26107478 16.1357626,6.328151 C16.1344307,6.31976806 16.1334297,6.31095576 16.1334297,6.30190779 C16.1334297,6.24000382 16.180285,6.18913128 16.2401964,6.18336048 L16.2515745,6.1828153 L17.8081983,6.18274496 L17.8202473,6.18332029 C17.8773811,6.18851665 17.9239943,6.2304824 17.936618,6.28556071 L17.9387943,6.29755528 C18.2119229,7.73945196 17.5679774,9.2849383 16.0662043,10.9201966 C17.1525987,12.985238 16.7713297,15.2183151 14.9365205,17.5574032 L13.838594,17.5574032 C14.8508064,16.11972 15.1720063,14.7791555 14.8079045,13.5102671 L14.7847296,13.4334399 C13.5692358,14.6663615 13.2188827,16.0226492 13.7556037,17.5574032 Z" id="形状结合"></path>
            </g>
        </g>
    </g>
</svg>