<?xml version="1.0" encoding="UTF-8"?>
<svg width="28px" height="28px" viewBox="0 0 28 28" version="1.1" xmlns="http://www.w3.org/2000/svg" xmlns:xlink="http://www.w3.org/1999/xlink">
    <!-- Generator: Sketch 63 (92445) - https://sketch.com -->
    <title>拦截-圆形</title>
    <desc>Created with Sketch.</desc>
    <defs>
        <linearGradient x1="50%" y1="0%" x2="50%" y2="100%" id="linearGradient-1">
            <stop stop-color="#7BD28A" offset="0%"></stop>
            <stop stop-color="#4FD3BE" offset="100%"></stop>
        </linearGradient>
        <circle id="path-2" cx="14" cy="14" r="14"></circle>
    </defs>
    <g id="页面1" stroke="none" stroke-width="1" fill="none" fill-rule="evenodd">
        <g id="画板" transform="translate(-613.000000, -81.000000)">
            <g id="拦截-圆形" transform="translate(613.000000, 81.000000)">
                <mask id="mask-3" fill="white">
                    <use xlink:href="#path-2"></use>
                </mask>
                <use id="椭圆形" fill="url(#linearGradient-1)" xlink:href="#path-2"></use>
                <path d="M13.9777778,5 C14.2297778,5 14.4377778,5.07422221 14.66,5.17777777 C14.7044444,5.208 14.912,5.38577779 15.2973333,5.6968889 C15.6885099,6.0054366 16.0996258,6.28782819 16.528,6.54222223 C16.9435556,6.8088889 17.344,6.97244444 17.7146667,7.06133333 C18.4262222,7.22444444 19.2564444,7.31333333 20.176,7.31333333 C20.4577778,7.31333333 20.68,7.328 20.6951111,7.29866667 L20.6951111,7.29866667 L20.7693333,7.29866667 C21.0796836,7.29545861 21.38044,7.40614712 21.6146667,7.60977777 C21.8666667,7.84666667 22,8.12844444 22,8.46933333 L22,8.46933333 L22,11.3906667 C21.9848889,14.9791111 21.1991111,17.5742222 20.0426667,19.3684444 C19.2568889,20.6288889 18.5004444,21.4146667 17.5813333,22.0968889 C16.6617778,22.7791111 16.0537778,23.0755556 15.2973333,23.3426667 C14.5857778,23.6093333 14.3782222,23.6537778 14.2004444,23.6688889 C14.1257778,23.6835556 14.052,23.6835556 13.9924444,23.6835556 L13.9079012,23.6830124 C13.8540741,23.6819259 13.8045926,23.6786667 13.7551111,23.6688889 C13.4586667,23.6244444 13.1622222,23.5946667 12.0795556,23.1053333 C11.0271111,22.6155556 10.1222222,22.0671111 8.96577777,20.7622222 C7.8088889,19.4573333 6.99377779,17.9746667 6.43022223,15.4835556 C6.13333333,14.2377778 6,12.8884444 6,11.4053333 L6,11.4053333 L6,8.48444444 C6,8.15866667 6.13377777,7.8768889 6.38533333,7.63955556 C6.60844444,7.41733333 6.91955556,7.31333333 7.23066667,7.31333333 L7.23066667,7.31333333 L7.31877257,7.31396354 C7.37006945,7.31677083 7.55177778,7.328 7.824,7.328 C8.75822221,7.328 9.58844444,7.2391111 10.3004444,7.076 C11.7533333,6.74977779 13.2364445,5.22266667 13.2808889,5.20755556 C13.5031111,5.0591111 13.7257778,5 13.9777778,5 Z M13.9405111,10.1898765 C11.85676,10.1898765 10.1519012,11.8947353 10.1519012,13.9784864 C10.1519012,16.0621983 11.85676,17.7670963 13.9405111,17.7670963 C16.024223,17.7670963 17.7290817,16.0621983 17.7290817,13.9784864 C17.7290817,11.8947353 16.024223,10.1898765 13.9405111,10.1898765 Z M11.6238606,12.103636 L15.6297589,16.4336005 C15.1362325,16.7726285 14.5477336,16.9569955 13.9405111,16.9552525 C13.15033,16.9575207 12.3918553,16.6446317 11.8331106,16.085887 C11.2743659,15.5271422 10.9614769,14.7686675 10.963745,13.9784864 C10.9617778,13.293143 11.1968881,12.6316507 11.6238606,12.103636 L11.6238606,12.103636 Z M13.9405111,11.0017203 C14.7306922,10.9994522 15.4891669,11.3123412 16.0479116,11.8710859 C16.6066564,12.4298306 16.9195453,13.1883053 16.9172772,13.9784864 C16.9192768,14.6750934 16.676342,15.3470588 16.2359547,15.8792618 L16.2359547,15.8792618 L12.2093089,11.5527291 C12.7112676,11.1950021 13.3159864,10.9999277 13.9405111,11.0017203 Z" id="形状结合" fill="#FFFFFF" fill-rule="nonzero" mask="url(#mask-3)"></path>
            </g>
        </g>
    </g>
</svg>