<?xml version="1.0" encoding="UTF-8"?>
<svg width="27px" height="27px" viewBox="0 0 27 27" version="1.1" xmlns="http://www.w3.org/2000/svg" xmlns:xlink="http://www.w3.org/1999/xlink">
    <!-- Generator: Sketch 61.2 (89653) - https://sketch.com -->
    <title>27*27@1.5x</title>
    <desc>Created with Sketch.</desc>
    <g id="27*27" stroke="none" stroke-width="1" fill="none" fill-rule="evenodd">
        <g transform="translate(0.000000, 7.500000)" id="编组-13备份">
            <g>
                <g id="编组-12" transform="translate(21.582572, 10.729885) rotate(-360.000000) translate(-21.582572, -10.729885) translate(17.055976, 9.995843)"></g>
                <path d="M21.5253919,8.29725098 C23.2315825,8.29725098 24.7754948,8.99197001 25.889991,10.1137253 L25.889991,10.1137253 C25.8930536,10.1175575 25.8974337,10.1216589 25.9016928,10.1259179 C26.0890369,10.3132617 25.9710406,10.7350482 25.6380828,11.0680055 C25.3051251,11.4009628 24.8833381,11.518959 24.695994,11.3316151 L24.685,11.318 C23.9319285,10.5606521 22.9083531,10.0710186 21.7708329,10.0091075 L21.5253919,10.0024453 C20.2899853,10.0024453 19.1725791,10.5064376 18.3666674,11.3196551 L18.3666674,11.3196551 C18.3613215,11.3225144 18.357013,11.3271318 18.3525298,11.331615 C18.165186,11.5189591 17.7433995,11.4009628 17.4104422,11.068005 C17.0774849,10.7350473 16.9594887,10.3132603 17.1468326,10.1259162 L17.161,10.114 C18.2096751,9.05795562 19.6389952,8.38046026 21.2260292,8.30440811 Z M7.58815808,0 C8.0772374,0 8.47371453,0.396477128 8.47371453,0.885556452 C8.47371453,1.3688134 8.08662115,1.76165985 7.60558531,1.77094485 L7.58815808,1.7711129 L4.22984828,1.7711129 C4.03566088,1.7711129 3.86475738,1.89752803 3.80722202,2.08182484 L3.80312084,2.09575456 L1.77964263,9.404869 C1.74702012,9.52270653 1.81610054,9.64467849 1.93393807,9.677301 C1.94836626,9.68129535 1.96314991,9.68381246 1.97806109,9.68482137 L1.99300635,9.68532639 L7.058421,9.68532639 C7.15485332,9.68532639 7.23972298,9.62299181 7.26908504,9.53201703 L7.27222413,9.52139475 L9.43450957,1.47538477 C9.66607888,0.613699769 10.441741,0.0121264569 11.3317337,0.000181159161 L15.8247286,0 C16.3138079,0 16.710285,0.396477128 16.710285,0.885556452 C16.710285,1.3688134 16.3231916,1.76165985 15.8421558,1.77094485 L15.8247286,1.7711129 L11.3587377,1.7711129 C11.2623054,1.7711129 11.1774358,1.83344749 11.1480737,1.92442227 L11.1449346,1.93504454 L8.98264917,9.98105453 C8.75107987,10.8427395 7.97541775,11.4443128 7.08542503,11.4562581 L1.99300635,11.4564393 C1.81335564,11.4564393 1.63453015,11.4321429 1.46139181,11.3842108 C0.411459423,11.0935442 -0.208391383,10.014735 0.0641989097,8.96414919 L0.0727328664,8.93232274 L2.09621107,1.6232083 C2.3590854,0.673665785 3.21724067,0.0133109949 4.20002914,0.000198853319 L7.58815808,0 Z M23.8045564,5.06261699e-14 C24.9049848,5.06261699e-14 25.7970584,0.892073539 25.7970584,1.99250202 C25.7970584,2.15302315 25.7776607,2.31290673 25.7393218,2.46868143 L25.7293428,2.5075375 L25.0630189,4.99771772 C24.8321768,5.86041894 24.0560401,6.4630367 23.1652604,6.47500278 L17.4683713,6.47518426 C17.3718827,6.47518426 17.2869778,6.53759014 17.2576609,6.62863699 L17.2545274,6.63926758 L16.3593625,9.97968935 C16.1282699,10.8420408 15.3522965,11.444299 14.4617877,11.4562579 L10.7869497,11.4564393 C10.2978704,11.4564393 9.90139325,11.0599622 9.90139325,10.5708828 C9.90139325,10.0876259 10.2884866,9.69477945 10.7695225,9.68549445 L14.434768,9.68532639 C14.5312565,9.68532639 14.6161615,9.62292052 14.6454783,9.53187366 L14.6486118,9.52124307 L15.5437767,6.1808213 C15.7748693,5.31846981 16.5508427,4.71621165 17.4413515,4.70425272 L23.1382325,4.70407135 C23.2347505,4.70407135 23.319674,4.64162804 23.348967,4.55054336 L23.3520976,4.53990841 L24.0184215,2.04972818 C24.023416,2.03106285 24.0259455,2.011824 24.0259455,1.99250202 C24.0259455,1.87393733 23.9327424,1.77714139 23.8156059,1.77138385 L18.5220995,1.7711129 C18.0330201,1.7711129 17.636543,1.37463577 17.636543,0.885556452 C17.636543,0.402299501 18.0236364,0.00945305552 18.5046722,0.000168057515 L23.8045564,5.06261699e-14 Z" id="形状" fill="#FFFFFF" fill-rule="nonzero"></path>
            </g>
        </g>
    </g>
</svg>