<?xml version="1.0" encoding="UTF-8"?>
<svg width="80px" height="20px" viewBox="0 0 80 20" version="1.1" xmlns="http://www.w3.org/2000/svg" xmlns:xlink="http://www.w3.org/1999/xlink">
    <!-- Generator: Sketch 55 (78076) - https://sketchapp.com -->
    <title>形状结合</title>
    <desc>Created with Sketch.</desc>
    <g id="页面1" stroke="none" stroke-width="1" fill="none" fill-rule="evenodd">
        <g id="3.1.1API" transform="translate(-16.000000, -10.000000)" fill="#FFFFFF" fill-rule="nonzero">
            <path d="M47.0176377,25.2222283 C47.365872,25.145878 47.6279688,24.8503961 47.6404386,24.4937515 L47.6409033,24.4671328 L47.6409033,23.7014818 L49.2435862,23.7014818 L49.2435862,24.4671328 C49.2435862,25.7370467 48.1889018,26.768944 46.8797175,26.7896609 L46.8395618,26.7899784 L43.2335252,26.7899784 L43.2335252,25.2414147 L45.4594737,25.2414147 L45.4594737,22.8923717 L44.235202,22.8923717 C43.6819912,22.8923717 43.2335252,22.4466688 43.2335252,21.8968664 L43.2335252,15.4762331 C43.2335252,14.9264307 43.6819912,14.4807278 44.235202,14.4807278 L45.4594737,14.4807278 L45.4594737,13.1788011 L47.0176377,13.1788011 L47.0176377,14.4807278 L48.2419094,14.4807278 C48.7951202,14.4807278 49.2435862,14.9264307 49.2435862,15.4762331 L49.2435862,21.8968664 C49.2435862,22.4466688 48.7951202,22.8923717 48.2419094,22.8923717 L47.0176377,22.8923717 L47.0176377,25.2222283 Z M47.0176377,21.3438057 L47.6853225,21.3438057 L47.6853225,16.0292457 L47.0176377,16.0292457 L47.0176377,21.3438057 Z M45.4594737,21.3438057 L45.4594737,16.0292457 L44.7915894,16.0292457 L44.7915894,21.3438057 L45.4594737,21.3438057 Z M52.9277504,25.2414147 L52.9277504,14.9486616 L49.8000733,14.9486616 L49.8000733,13.4000979 L57.6135914,13.4000979 L57.6135914,14.9486616 L54.4859144,14.9486616 L54.4859144,25.2414147 L57.6135914,25.2414147 L57.6135914,26.7899784 L49.8000733,26.7899784 L49.8000733,25.2414147 L52.9277504,25.2414147 Z M72.191947,18.5458774 L72.191947,13.172909 L76.6115001,13.172909 L76.6115001,18.5458774 L77.3551956,18.5458774 L77.3551956,20.1014405 L76.6115001,20.1014405 L76.6115001,24.5144094 L76.6108685,24.5684083 C76.5815383,25.8219198 75.4584822,26.8198309 74.1977284,26.8398628 L74.1590919,26.8401698 L74.1590919,25.2846067 C74.6232411,25.2846067 75.0441642,24.9152363 75.0531294,24.5320812 L75.0533362,24.5144094 L75.0533165,20.1014405 L73.7501109,20.1014405 L73.7501109,26.8266606 L72.191947,26.8266606 L72.191947,20.1014405 L71.6381834,20.1014405 L71.6381834,24.5144094 C71.6381834,24.5324109 71.6379729,24.5504117 71.6375518,24.5684083 C71.6082216,25.8219198 70.4851655,26.8198309 69.2244117,26.8398628 L69.1857752,26.8401698 L69.1857752,25.2846067 C69.6406414,25.2846067 70.0539933,24.9298633 70.0787834,24.5550511 L70.0799678,24.5232459 L70.0799674,20.1014405 L68.7767893,20.1014405 L68.7767942,26.8266606 L67.2186303,26.8266606 L67.2186303,20.1014405 L65.0018529,20.1014405 L65.0018529,24.6747696 L66.2284178,24.4744443 L66.4799818,26.0096001 L61.9247844,26.7535648 L61.6732203,25.218409 L63.4436889,24.9292523 L63.4436889,20.1014405 L61.7990024,20.1014405 L61.7990024,18.5458774 L63.4436889,18.5458774 L63.4436889,15.2840304 L61.7990024,15.2840304 L61.7990024,13.7284673 L66.3541998,13.7284673 L66.3541998,15.2840304 L65.0018529,15.2840304 L65.0018529,18.5458774 L67.2186303,18.5458774 L67.2186303,13.172909 L71.6381834,13.172909 L71.6381834,18.5458774 L72.191947,18.5458774 Z M73.7501109,18.5458774 L75.0533095,18.5458774 L75.0532925,14.7283795 L73.7501109,14.7283795 L73.7501109,18.5458774 Z M70.0799673,18.5458774 L70.079967,14.7283795 L68.7767854,14.7283795 L68.7767882,18.5458774 L70.0799673,18.5458774 Z M94.4418217,20.4860921 L94.4418134,18.1612259 L92.716701,18.1612259 L92.7167077,20.4860921 L94.4418217,20.4860921 Z M94.4418272,22.0416552 L92.7167121,22.0416552 L92.7167259,26.8266606 L91.158562,26.8266606 L91.158562,13.172909 L96,13.172909 L96,24.5144094 C96,24.5333034 95.9997464,24.5521966 95.9992393,24.5710845 C95.9649018,25.850028 94.7121815,26.8205939 93.3424183,26.8398773 L93.3008756,26.8401698 L93.3008756,25.2846067 C93.9121287,25.2846067 94.4320339,24.8870004 94.4416347,24.529405 L94.441836,24.5144094 L94.4418272,22.0416552 Z M94.4418079,16.6056628 L94.4418012,14.7283795 L92.7166911,14.7283795 L92.7166965,16.6056628 L94.4418079,16.6056628 Z M87.8782128,17.9536192 L87.8782128,16.7234457 L86.7821609,16.7234457 L86.7821609,15.1678825 L87.8782128,15.1678825 L87.8782128,13.1599275 L89.4363768,13.1599275 L89.4363768,15.1678825 L90.5324287,15.1678825 L90.5324287,16.7234457 L89.4363768,16.7234457 L89.4363768,17.9536192 L89.714419,17.9536192 C90.206162,17.9536192 90.6047984,18.3515902 90.6047984,18.8425124 L90.6047984,25.1203207 C90.6047984,25.6112428 90.206162,26.0092139 89.714419,26.0092139 L87.6001706,26.0092139 C87.1084276,26.0092139 86.7097912,25.6112428 86.7097912,25.1203207 L86.7097912,18.8425124 C86.7097912,18.3515902 87.1084276,17.9536192 87.6001706,17.9536192 L87.8782128,17.9536192 Z M84.6439846,15.2840304 L84.6439846,18.5458774 L86.1844923,18.5458774 L86.1844923,20.1014405 L84.6439846,20.1014405 L84.6439846,24.3265672 L86.0540038,24.087419 L86.3149807,25.6210079 L81.6758014,26.4078421 L81.4148245,24.8742532 L83.0858206,24.5908417 L83.0858206,20.1014405 L81.545313,20.1014405 L81.545313,18.5458774 L83.0858206,18.5458774 L83.0858206,15.2840304 L81.545313,15.2840304 L81.545313,13.7284673 L86.1844923,13.7284673 L86.1844923,15.2840304 L84.6439846,15.2840304 Z M89.0465472,19.5091806 L88.2679104,19.5091806 L88.2679104,24.4536491 L89.0465472,24.4536491 L89.0465472,19.5091806 Z M29.3783354,30 C29.2121578,27.609939 29.9440678,25.3895598 31.5891653,23.3898848 L31.6615395,23.3027564 C31.7476197,23.2001171 31.8316901,23.0980698 31.9137582,22.9966119 C31.5795562,22.4200371 31.1676988,21.852667 30.6784867,21.2932598 L30.6249649,21.3765052 C30.5424435,21.5049787 30.4582696,21.6338032 30.372446,21.762978 C28.7482261,24.2076219 28.526193,26.9367403 29.2217958,30 L29.3783354,30 Z M23.3100706,30 C23.9915322,26.9831862 23.7830628,24.2902762 22.21272,21.8738731 L22.1479607,21.7752598 C22.0409884,21.6140478 21.9365791,21.4533806 21.834738,21.2932598 L21.7696325,21.3678845 C21.3115868,21.8991744 20.9229954,22.4376628 20.6040322,22.9843741 C20.6631814,23.0578536 20.7233739,23.131617 20.7846158,23.2056821 L20.8772665,23.3170079 C22.5679442,25.3354949 23.324324,27.580783 23.1621303,30 L23.3100706,30 Z M31.6954903,30 L27.4486758,30 C25.8586778,26.4338069 26.24625,23.2150748 28.6527632,20.4189804 L28.7263058,20.3343797 C28.8797179,20.159639 29.0269844,19.9864073 29.1681279,19.8146791 L29.1323741,19.7896963 C28.0190427,19.0070896 27.0577474,18.2321845 26.2512608,17.4656779 C25.4390422,18.2378292 24.4696337,19.0184156 23.3459965,19.8068106 C23.4603358,19.9462506 23.5788342,20.086687 23.7014078,20.228119 L23.7941009,20.3343797 C26.2661251,23.1500854 26.6777895,26.3977848 25.0717308,30 L20.8763766,30 C21.4887887,28.2517301 21.089027,26.7067548 19.702118,25.3023084 L19.6756749,25.3898238 C19.2602256,26.8352408 19.6267227,28.3623055 20.7816825,30 L19.4601806,30 C17.3588387,27.3261342 16.9281091,24.7737955 18.1837304,22.4144498 C16.4810927,20.5547869 15.7551158,18.7972078 16.0727405,17.1574786 C16.0820747,17.0969231 16.1312871,17.0496569 16.1925223,17.0436239 L16.205818,17.0429724 L17.9756282,17.0428923 L17.9893949,17.0435476 C18.066002,17.0505035 18.1260323,17.1152978 18.1260323,17.1942019 C18.1260323,17.2045082 18.1250081,17.2145738 18.1230566,17.2243012 L18.1194459,17.2386265 C17.844984,18.2885212 18.2226822,19.4828832 19.3040801,20.8338161 C19.7098291,20.378947 20.1837686,19.9325816 20.7258049,19.4952078 C19.1644986,17.2268235 18.5655985,15.1138713 18.9672826,13.1658163 L18.9772582,13.1184579 C18.990324,13.0337643 19.0597844,12.9678384 19.1457973,12.9607747 L19.1611397,12.9601473 L20.8517599,12.9600859 L20.8564001,12.9599587 C20.9504701,12.9599587 21.027577,13.0330465 21.0347072,13.1258723 L21.0352453,13.1399376 C21.0352453,13.147735 21.0347526,13.1554165 21.0337967,13.1629525 L21.0318305,13.1751168 C21.030297,13.1829051 21.0282641,13.1905125 21.0257669,13.197904 L21.0284068,13.1870803 L21.0189475,13.2233878 C20.6285508,14.7373828 21.0370376,16.4474393 22.2809722,18.3626125 C23.3597998,17.5910384 24.2609462,16.8440736 24.9885996,16.1208058 C23.273288,14.0392852 22.7428795,12.0244841 23.4550273,10.0908826 C23.4723259,10.0420541 23.5163669,10.0060109 23.5693823,10.0007547 L23.5828128,10 L25.5014563,10 C25.5539656,10 25.5965327,10.0429295 25.5965327,10.0957715 C25.5965327,10.1108693 25.5930579,10.1251503 25.5868691,10.1378488 L25.5846948,10.1416304 C24.8936406,11.5262175 25.0988807,13.0256722 26.2513124,14.6527856 C27.4039355,13.0255579 27.6091278,11.5260067 26.9178992,10.1413384 C26.9106039,10.1278488 26.9064395,10.1122996 26.9064395,10.0957715 C26.9064395,10.0467039 26.9431428,10.0062631 26.990428,10.0007362 L26.9981265,10 L28.9199666,10 L28.9329997,10.0006234 C28.9838535,10.0055136 29.026495,10.0387256 29.0451699,10.0844052 L29.049657,10.0971605 C29.7587251,12.0287993 29.2276348,14.0415129 27.5143201,16.1207934 C28.2445107,16.8467743 29.1496721,17.5966171 30.2335656,18.3713245 C31.4872402,16.4447174 31.8957935,14.7256101 31.496607,13.2047381 C31.4908207,13.1866694 31.4877083,13.1674107 31.4877083,13.1474204 C31.4877083,13.0489175 31.5632791,12.968177 31.6592587,12.9607108 L31.6738018,12.9601473 L33.3596337,12.9600859 L33.3642984,12.9599587 C33.4518585,12.9599587 33.5247221,13.0232807 33.5401375,13.1069021 C33.9673576,15.0739077 33.3700281,17.2096765 31.7879953,19.5045035 C32.3340811,19.9456867 32.8105686,20.3961187 33.2179089,20.8551035 C34.3225622,19.4825527 34.7024904,18.27124 34.4113116,17.2085273 C34.4097918,17.1989781 34.4086497,17.1889398 34.4086497,17.1786331 C34.4086497,17.108117 34.4621128,17.0501671 34.5304732,17.0435934 L34.5434559,17.0429724 L36.3196028,17.0428923 L36.333351,17.0435476 C36.3985422,17.0494669 36.451729,17.097271 36.466133,17.1600118 L36.4686162,17.1736751 C36.7802628,18.8161693 36.0455048,20.5766647 34.3319438,22.4394212 C35.5715472,24.7917524 35.1365097,27.3354966 33.0429461,30 L31.7901844,30 C32.9451442,28.3623055 33.3116413,26.8352408 32.896192,25.3898238 L32.8697489,25.3023084 C31.4828399,26.7067548 31.0830782,28.2517301 31.6954903,30 Z" id="形状结合"></path>
        </g>
    </g>
</svg>